<?xml version="1.0" encoding="UTF-8"?>
<svg width="96px" height="10px" viewBox="0 0 96 10" version="1.1" xmlns="http://www.w3.org/2000/svg" xmlns:xlink="http://www.w3.org/1999/xlink">
    <!-- Generator: sketchtool 52.5 (67469) - http://www.bohemiancoding.com/sketch -->
    <title>E99B5974-38D5-4FB5-BB45-487DE0742282</title>
    <desc>Created with sketchtool.</desc>
    <g id="Admin" stroke="none" stroke-width="1" fill="none" fill-rule="evenodd" opacity="0.5">
        <g id="Editing-User" transform="translate(-1160.000000, -882.000000)" fill="#2E3C4C">
            <g id="Footer" transform="translate(96.000000, 882.000000)">
                <g id="Group-2" transform="translate(904.000000, 0.000000)">
                    <g id="devensis_b_v" transform="translate(160.000000, 0.000000)">
                        <path d="M24,0.666666667 L27.0117647,0.666666667 C29.7882353,0.666666667 32,2.77894737 32,5.33333333 C32,7.8877193 29.7882353,10 27.0117647,10 L24,10 L24,0.666666667 Z M27.0117647,8.08421053 C28.6588235,8.08421053 29.8823529,6.90526316 29.8823529,5.38245614 C29.8823529,3.85964912 28.6117647,2.68070175 27.0117647,2.68070175 L26.1176471,2.68070175 L26.1176471,8.13333333 L27.0117647,8.13333333 L27.0117647,8.08421053 Z" id="Shape" fill-rule="nonzero"></path>
                        <polygon id="Path" points="34.6666667 0.666666667 40.6666667 0.666666667 40.6666667 2.63157895 36.6519608 2.63157895 36.6519608 4.35087719 40.2254902 4.35087719 40.2254902 6.31578947 36.6519608 6.31578947 36.6519608 8.03508772 40.6666667 8.03508772 40.6666667 10 34.6666667 10"></polygon>
                        <polygon id="Path" points="44 0.666666667 46.438861 0.666666667 48.6901173 5.78803419 50.8944724 0.666666667 53.3333333 0.666666667 48.6432161 10"></polygon>
                        <polygon id="Path" points="54.6666667 0.666666667 60.6666667 0.666666667 60.6666667 2.63157895 56.6519608 2.63157895 56.6519608 4.35087719 60.2254902 4.35087719 60.2254902 6.31578947 56.6519608 6.31578947 56.6519608 8.03508772 60.6666667 8.03508772 60.6666667 10 54.6666667 10 54.6666667 0.666666667"></polygon>
                        <polygon id="Path" points="66.1333333 5.02847571 66.1333333 9.81239531 64 9.81239531 64 0.666666667 69.8666667 5.68509213 69.8666667 0.854271357 72 0.854271357 72 10"></polygon>
                        <path d="M74,7.66666667 L76.178744,6.85714286 C76.2850242,7.61904762 76.9227053,8.0952381 77.7729469,8.0952381 C78.5169082,8.0952381 79.0483092,7.71428571 79.0483092,7.0952381 C79.0483092,5.61904762 74.6376812,6.04761905 74.6376812,3.19047619 C74.6376812,1.71428571 75.9661836,0.666666667 77.826087,0.666666667 C79.3140097,0.666666667 80.5362319,1.33333333 80.9613527,2.38095238 L78.8888889,3.19047619 C78.7294686,2.80952381 78.3574879,2.52380952 77.826087,2.52380952 C77.294686,2.52380952 76.9227053,2.80952381 76.9227053,3.19047619 C76.9227053,4.47619048 81.3333333,4.14285714 81.3333333,7.14285714 C81.3333333,8.80952381 79.8454106,10 77.7198068,10 C75.9661836,10 74.3719807,9.04761905 74,7.66666667 Z" id="Path"></path>
                        <polygon id="Path" points="84 0.666666667 86 0.666666667 86 10 84 10"></polygon>
                        <path d="M88,7.66666667 L90.1630695,6.85714286 C90.2685851,7.61904762 90.9016787,8.0952381 91.7458034,8.0952381 C92.4844125,8.0952381 93.0119904,7.71428571 93.0119904,7.0952381 C93.0119904,5.61904762 88.6330935,6.04761905 88.6330935,3.19047619 C88.6330935,1.71428571 89.9520384,0.666666667 91.7985612,0.666666667 C93.2757794,0.666666667 94.4892086,1.33333333 94.911271,2.38095238 L92.9064748,3.19047619 C92.7482014,2.80952381 92.3788969,2.52380952 91.8513189,2.52380952 C91.323741,2.52380952 90.9544365,2.80952381 90.9544365,3.19047619 C90.9544365,4.47619048 95.3333333,4.14285714 95.3333333,7.14285714 C95.3333333,8.80952381 93.8561151,10 91.7458034,10 C89.9520384,10 88.3693046,9.04761905 88,7.66666667 Z" id="Path"></path>
                        <g id="Group" fill-rule="nonzero">
                            <path d="M5.8,4.0952381 L12.8566667,4.0952381 L13.8233333,5.04761905 L12.8566667,6 L3.86666667,6 L5.8,4.0952381 Z M19.3333333,5 L14.5483333,9.71428571 L14.5,9.66666667 L14.5,9.76190476 L0,9.76190476 L1.93333333,7.85714286 L13.6783333,7.85714286 L16.5783333,5 L13.6783333,2.14285714 L7.73333333,2.14285714 L9.66666667,0.238095238 L14.5,0.238095238 L14.5483333,0.285714286 L19.3333333,5 Z" id="SVGID_1_"></path>
                        </g>
                    </g>
                </g>
            </g>
        </g>
    </g>
</svg>