<svg xmlns="http://www.w3.org/2000/svg" width="120" height="120" viewBox="0 0 120 120">
    <defs>
        <linearGradient id="a" x1="0%" y1="49.976%" y2="49.976%">
            <stop offset="0%" stop-color="#72D5FF"/>
            <stop offset="100%" stop-color="#0495F3"/>
        </linearGradient>
        <linearGradient id="b" x1="-7.576%" x2="87.431%" y1="11.568%" y2="88.439%">
            <stop offset="0%" stop-color="#72D5FF"/>
            <stop offset="100%" stop-color="#0495F3"/>
        </linearGradient>
        <linearGradient id="c" x1="50%" x2="50%" y1="0%" y2="100%">
            <stop offset="0%" stop-color="#72D5FF"/>
            <stop offset="100%" stop-color="#0495F3"/>
        </linearGradient>
    </defs>
    <g fill="none" fill-rule="evenodd">
        <path fill="#0495F3" fill-rule="nonzero" d="M59.988 51.804c11.026 0 20 8.97 20 20s-8.972 20-20 20c-11.03 0-20-8.97-20-20v-20h20zm0-13.33H26.662V71.8c0 18.407 14.92 33.327 33.326 33.327 18.405 0 33.327-14.92 33.327-33.327 0-18.407-14.92-33.326-33.327-33.326z"/>
        <path fill="url(#a)" d="M19.134 36.474H60.46l.442.01-.253 13.35-.19-.03H32.467A20 20 0 0 1 13.33 35.616c1.882.57 3.838.86 5.804.858z" transform="translate(0 2)"/>
        <path fill="url(#b)" d="M55.256 18.044l13.53 13.53.61.61L84.478 47.26l-9.427 9.426-19.795-19.79a20 20 0 0 1-3.494-23.562 20.015 20.015 0 0 0 3.494 4.71z" transform="translate(0 2)"/>
        <path fill="url(#c)" d="M93.315 28.475V69.8h-13.33V41.805a20 20 0 0 1 14.192-19.134 20 20 0 0 0-.862 5.804z" transform="translate(0 2)"/>
    </g>
</svg>
